<svg id="headerLogo" xmlns="http://www.w3.org/2000/svg" width="293.08" height="293.08" viewBox="0 0 293.08 293.08"><title>logoAlternativo</title><path d="M65,282.5a40.46,40.46,0,0,1-39.38-50,283,283,0,0,1,206.9-206.9A40.27,40.27,0,0,1,282.5,65V242A40.55,40.55,0,0,1,242,282.5Z" transform="translate(-6.92 -6.92)" style="fill:#fff"/><path d="M242.2,41.92A23,23,0,0,1,265,65V242a23,23,0,0,1-23,23H65a22.71,22.71,0,0,1-18.16-8.84,22.42,22.42,0,0,1-4.23-19.48A265.46,265.46,0,0,1,236.68,42.6a23.21,23.21,0,0,1,5.51-.68h0m0-35a58.23,58.23,0,0,0-13.85,1.69A300.49,300.49,0,0,0,8.61,228.35C-.33,264.82,27.43,300,65,300H242a58,58,0,0,0,58-58V65A58.06,58.06,0,0,0,242.2,6.92Z" transform="translate(-6.92 -6.92)" style="fill:#ffb300"/></svg>